<?xml version="1.0" encoding="UTF-8" standalone="no"?>
<svg xmlns="http://www.w3.org/2000/svg" viewBox="0 0 200 45">
    <title>Spring Boot Extension</title>
    <g style="fill: #6db33f;">
        <!-- Original logo with the Spring Boot color -->
        <path d="M39.4,3.7c-0.6,1.5-1.4,2.8-2.3,4c-3.9-4-9.3-6.4-15.2-6.4c-11.7,0-21.3,9.5-21.3,21.3 c0,6.2,2.6,11.7,6.8,15.6l0.8,0.7c3.7,3.1,8.5,5,13.7,5c11.2,0,20.4-8.7,21.2-19.8C43.7,18.7,42.1,11.8,39.4,3.7z M10.5,38.3 c-0.6,0.8-1.8,0.9-2.6,0.3C7.1,37.9,7,36.8,7.6,36c0.6-0.8,1.8-0.9,2.6-0.3C11,36.4,11.1,37.5,10.5,38.3z M39.3,31.9 c-5.2,7-16.5,4.6-23.6,5c0,0-1.3,0.1-2.6,0.3c0,0,0.5-0.2,1.1-0.4c5-1.7,7.4-2.1,10.5-3.7c5.8-3,11.5-9.4,12.7-16.1 c-2.2,6.4-8.9,12-14.9,14.2c-4.2,1.5-11.7,3-11.7,3c0,0-0.3-0.2-0.3-0.2c-5.1-2.5-5.3-13.6,4-17.1c4.1-1.6,8-0.7,12.4-1.8 C31.6,14.1,37,10.6,39.2,6C41.7,13.3,44.7,24.8,39.3,31.9z"/>
        <!-- Larger "Spring Boot Extension" text -->
        <text x="50" y="30" font-family="Arial" font-size="14" fill="#6db33f" font-weight="bold">
            Spring Boot Extension
        </text>
    </g>
</svg>
